<svg width="13" height="20" viewBox="0 0 13 20" fill="none" xmlns="http://www.w3.org/2000/svg">
<path opacity="0.35" d="M5.12161 12.1211C5.70756 11.5351 11.5351 5.70756 12.1211 5.12161C13.293 3.9497 13.293 2.05084 12.1211 0.878932C10.9492 -0.292977 9.0503 -0.292977 7.87839 0.878932C7.29244 1.46489 1.46489 7.29244 0.878932 7.87839C-0.292977 9.0503 -0.292977 10.9492 0.878932 12.1211C2.05084 13.293 3.9507 13.293 5.12161 12.1211Z" fill="white"/>
<path d="M0.878932 12.1216C1.46489 12.7076 7.29244 18.5351 7.87839 19.1211C9.0503 20.293 10.9492 20.293 12.1211 19.1211C13.293 17.9492 13.293 16.0503 12.1211 14.8784C11.5351 14.2924 5.70756 8.46489 5.12161 7.87893C3.9497 6.70702 2.05084 6.70702 0.878932 7.87893C-0.292977 9.05084 -0.292977 10.9507 0.878932 12.1216Z" fill="white"/>
</svg>
