<svg width="144" height="153" viewBox="0 0 144 153" fill="none" xmlns="http://www.w3.org/2000/svg">
<g id="Group 14349">
<path id="Vector" opacity="0.35" d="M136 8H8V138.16C8 148.44 18.816 155.12 28.008 150.528L72 128.528L115.992 150.528C125.184 155.12 136 148.432 136 138.16V8Z" fill="#327052"/>
<path id="Vector_2" d="M132 0C128.912 0 15.088 0 12 0C5.376 0 0 5.376 0 12C0 18.624 5.376 24 12 24C15.088 24 128.912 24 132 24C138.624 24 144 18.624 144 12C144 5.376 138.624 0 132 0Z" fill="#327052"/>
</g>
</svg>
