<svg width="17" height="19" viewBox="0 0 17 19" fill="none" xmlns="http://www.w3.org/2000/svg">
<path d="M14.9282 0C14.579 0 1.70634 0 1.35711 0C0.607987 0 0 0.607986 0 1.35711C0 2.10624 0.607987 2.71423 1.35711 2.71423C1.70634 2.71423 14.579 2.71423 14.9282 2.71423C15.6774 2.71423 16.2854 2.10624 16.2854 1.35711C16.2854 0.607986 15.6774 0 14.9282 0Z" fill="#327052"/>
<path opacity="0.35" d="M15.3807 2.71423H0.904785V17.4344C0.904785 18.597 2.128 19.3524 3.16754 18.8331L8.14272 16.3451L13.1179 18.8331C14.1574 19.3524 15.3807 18.5961 15.3807 17.4344V2.71423Z" fill="#327052"/>
</svg>
