<svg width="43" height="44" viewBox="0 0 43 44" fill="none" xmlns="http://www.w3.org/2000/svg">
<g id="Component 4">
<path id="Vector" opacity="0.35" d="M42.9863 10.125C42.9863 4.87861 34.4791 0.624985 23.9863 0.624985C13.4936 0.624985 4.98633 4.87861 4.98633 10.125C4.98633 11.6901 5.75583 13.1626 7.0977 14.4641V36.25C7.0977 40.1854 9.93345 43.375 13.4318 43.375H34.5432C38.0392 43.375 40.6113 40.1854 40.6113 36.25V14.875C41.9508 13.5735 42.9863 11.6901 42.9863 10.125Z" fill="#D2B64B"/>
<path id="Vector_2" d="M0.5 10.125C0.5 11.6901 1.2695 13.1626 2.61137 14.4641V36.25C2.61137 40.1854 5.44712 43.375 8.9455 43.375H13.6955C10.1971 43.375 7.36137 40.1854 7.36137 36.25V14.4641C6.02187 13.1626 5.25 11.6901 5.25 10.125C5.25 5.28236 12.5056 1.29236 21.875 0.70811C21.096 0.658235 20.3075 0.624985 19.5 0.624985C9.00725 0.624985 0.5 4.87861 0.5 10.125Z" fill="#D2A651"/>
<path id="Vector_3" d="M12.281 36.4197C13.5927 36.4197 14.656 35.3563 14.656 34.0447C14.656 32.733 13.5927 31.6697 12.281 31.6697C10.9693 31.6697 9.90601 32.733 9.90601 34.0447C9.90601 35.3563 10.9693 36.4197 12.281 36.4197Z" fill="#D2A651"/>
<path id="Vector_4" d="M19.9149 36.4197C21.2266 36.4197 22.2899 35.3563 22.2899 34.0447C22.2899 32.733 21.2266 31.6697 19.9149 31.6697C18.6032 31.6697 17.5399 32.733 17.5399 34.0447C17.5399 35.3563 18.6032 36.4197 19.9149 36.4197Z" fill="#D2A651"/>
<path id="Vector_5" d="M15.8435 28.7856C17.1552 28.7856 18.2185 27.7223 18.2185 26.4106C18.2185 25.099 17.1552 24.0356 15.8435 24.0356C14.5318 24.0356 13.4685 25.099 13.4685 26.4106C13.4685 27.7223 14.5318 28.7856 15.8435 28.7856Z" fill="#D2A651"/>
</g>
</svg>
