<svg width="20" height="22" viewBox="0 0 20 22" fill="none" xmlns="http://www.w3.org/2000/svg">
<g id="Group 14358">
<path id="Vector" opacity="0.35" d="M19.9166 1.58973C19.9166 1.28031 19.7937 0.983566 19.5749 0.764774C19.3561 0.545981 19.0594 0.423065 18.75 0.423065C17.2029 0.423065 15.7191 1.03765 14.6252 2.13161C13.5312 3.22557 12.9166 4.7093 12.9166 6.2564V10.4074C12.916 10.8977 13.0699 11.3758 13.3564 11.7737C13.6429 12.1716 14.0474 12.4691 14.5126 12.6241L15.25 12.8702V14.4231H19.9166V1.58973Z" fill="#327052"/>
<path id="Vector_2" d="M17.5831 21.4231C18.2019 21.4231 18.7954 21.1772 19.233 20.7396C19.6706 20.3021 19.9164 19.7086 19.9164 19.0897V14.4231H15.2498V19.0897C15.2498 19.7086 15.4956 20.3021 15.9332 20.7396C16.3708 21.1772 16.9643 21.4231 17.5831 21.4231Z" fill="#327052"/>
<path id="Vector_3" d="M4.74996 21.4231C5.3688 21.4231 5.96229 21.1772 6.39987 20.7396C6.83746 20.3021 7.08329 19.7086 7.08329 19.0897V14.4231H2.41663V19.0897C2.41663 19.7086 2.66246 20.3021 3.10004 20.7396C3.53763 21.1772 4.13112 21.4231 4.74996 21.4231Z" fill="#327052"/>
<path id="Vector_4" opacity="0.35" d="M2.41659 10.7084V14.4231H7.08325V10.7084C7.76426 10.4694 8.35438 10.0251 8.77228 9.43673C9.19018 8.84832 9.41529 8.14478 9.41658 7.42306V1.58973C9.41658 1.28031 9.29367 0.983566 9.07488 0.764774C8.85608 0.545981 8.55934 0.423065 8.24992 0.423065C7.9405 0.423065 7.64375 0.545981 7.42496 0.764774C7.20617 0.983566 7.08325 1.28031 7.08325 1.58973V6.2564C7.08325 6.41111 7.02179 6.55948 6.9124 6.66888C6.803 6.77827 6.65463 6.83973 6.49992 6.83973C6.34521 6.83973 6.19684 6.77827 6.08744 6.66888C5.97804 6.55948 5.91659 6.41111 5.91659 6.2564V1.58973C5.91659 1.28031 5.79367 0.983566 5.57488 0.764774C5.35608 0.545981 5.05934 0.423065 4.74992 0.423065C4.4405 0.423065 4.14375 0.545981 3.92496 0.764774C3.70617 0.983566 3.58325 1.28031 3.58325 1.58973V6.2564C3.58325 6.41111 3.52179 6.55948 3.4124 6.66888C3.303 6.77827 3.15463 6.83973 2.99992 6.83973C2.84521 6.83973 2.69684 6.77827 2.58744 6.66888C2.47804 6.55948 2.41659 6.41111 2.41659 6.2564V1.58973C2.41659 1.28031 2.29367 0.983566 2.07488 0.764774C1.85608 0.545981 1.55934 0.423065 1.24992 0.423065C0.940499 0.423065 0.643753 0.545981 0.424961 0.764774C0.206168 0.983566 0.083252 1.28031 0.083252 1.58973V7.42306C0.084543 8.14478 0.309654 8.84832 0.727557 9.43673C1.14546 10.0251 1.73558 10.4694 2.41659 10.7084Z" fill="#327052"/>
</g>
</svg>
