<svg width="48" height="48" viewBox="0 0 48 48" fill="none" xmlns="http://www.w3.org/2000/svg">
<g id="Component 4">
<path id="Vector" opacity="0.35" d="M48 23.75C48 31.3832 45.0597 34.4684 41.4094 38.6436C37.0536 43.624 36.486 47.5 24.25 47.5C13.2181 47.5 10.1757 41.0661 8.2615 39.1519C6.34725 37.2376 0.5 30.7087 0.5 23.75C0.5 16.9836 7.169 11.1768 9.696 7.93013C12.223 4.6835 15.2297 0 24.25 0C28.0167 0 31.1019 1.35375 34.8354 2.3465C38.1675 3.23475 41.9437 3.31788 43.9957 5.66438C47.6509 9.84438 48 16.6606 48 23.75Z" fill="#FFD124"/>
<path id="Vector_2" d="M26.625 11.875C20.0676 11.875 14.75 17.1926 14.75 23.75C14.75 30.3074 20.0676 35.625 26.625 35.625C33.1824 35.625 38.5 30.3074 38.5 23.75C38.5 17.1926 33.1824 11.875 26.625 11.875Z" fill="white"/>
</g>
</svg>
