<svg width="32" height="41" viewBox="0 0 32 41" fill="none" xmlns="http://www.w3.org/2000/svg">
<path id="Vector" d="M4.89316 0C2.61359 0 0.759766 1.83885 0.759766 4.1V36.9C0.759766 39.1611 2.61359 41 4.89316 41H17.2934C19.5729 41 21.4268 39.1611 21.4268 36.9V32.4477L17.2934 28.3477V36.9H4.89316V4.1H17.2934V8.55234L21.4268 12.6523V4.1C21.4268 1.83885 19.5729 0 17.2934 0H4.89316ZM13.16 14.35V18.45L23.7962 29.0003L27.9296 24.9003L17.2934 14.35H13.16ZM29.3908 26.3497L25.2574 30.4497L27.3241 32.4997C27.7271 32.8995 28.3823 32.8995 28.7853 32.4997L31.4575 29.8491C31.8605 29.4473 31.8605 28.7995 31.4575 28.3997L29.3908 26.3497Z" fill="#327052"/>
</svg>
