<svg width="40" height="41" viewBox="0 0 40 41" fill="none" xmlns="http://www.w3.org/2000/svg">
<path opacity="0.35" d="M4.06463 36.4341C5.0413 37.4108 6.62297 37.4108 7.59963 36.4341L10.933 33.1008L13.008 35.1758C13.743 35.9091 14.9996 35.3891 14.9996 34.3491L14.9996 27.1658C14.9996 26.2458 14.253 25.4991 13.333 25.4991H6.14963C5.10963 25.4991 4.58963 26.7558 5.32463 27.4908L7.39963 29.5641L4.0663 32.8975C3.08963 33.8741 3.08963 35.4575 4.06463 36.4341Z" fill="white"/>
<path d="M33.898 25.5475H26.7146C25.7946 25.5475 25.048 26.2941 25.048 27.2141V34.3975C25.048 35.4375 26.3046 35.9575 27.0396 35.2225L34.723 27.5391C35.458 26.8041 34.938 25.5475 33.898 25.5475Z" fill="white"/>
<path d="M33.8675 36.8658C33.2275 36.8658 32.5875 36.6225 32.0991 36.1341L27.9325 31.9675C26.9558 30.9925 26.9558 29.4075 27.9325 28.4325C28.9091 27.4558 30.4908 27.4558 31.4675 28.4325L35.6341 32.5991C36.6108 33.5741 36.6108 35.1591 35.6341 36.1341C35.1475 36.6225 34.5075 36.8658 33.8675 36.8658Z" fill="white"/>
<path d="M6.10312 15.4525L13.2865 15.4525C14.2065 15.4525 14.9531 14.7058 14.9531 13.7858L14.9531 6.60251C14.9531 5.56251 13.6965 5.04251 12.9615 5.77751L5.27812 13.4608C4.54312 14.1958 5.06312 15.4525 6.10312 15.4525Z" fill="white"/>
<path d="M5.69895 3.70001C6.33895 3.70001 6.97895 3.94335 7.46729 4.43168L11.634 8.59834C12.6106 9.57334 12.6106 11.1583 11.634 12.1333C10.6573 13.11 9.07562 13.11 8.09895 12.1333L3.93229 7.96668C2.95562 6.99168 2.95562 5.40668 3.93229 4.43168C4.41895 3.94335 5.05895 3.70001 5.69895 3.70001Z" fill="white"/>
<path opacity="0.35" d="M26.6675 15.5L33.8508 15.5C34.8908 15.5 35.4108 14.2433 34.6758 13.5083L32.6008 11.4333L35.9341 8.1C36.9108 7.125 36.9108 5.54 35.9341 4.565C35.4475 4.07667 34.8075 3.83333 34.1675 3.83333C33.5275 3.83333 32.8875 4.07667 32.3991 4.565L29.0658 7.89833L26.9908 5.825C26.2575 5.09 25.0008 5.61 25.0008 6.65V13.8333C25.0008 14.7533 25.7475 15.5 26.6675 15.5Z" fill="white"/>
</svg>
