<svg width="48" height="48" viewBox="0 0 48 48" fill="none" xmlns="http://www.w3.org/2000/svg">
    <path d="M34 4H10a2 2 0 0 0-2 2v34a2 2 0 0 0 2 2h24a6 6 0 0 0 6-6V10a6 6 0 0 0-6-6zm.898 17.102c-1.512 1.512-3.506 2.114-5.158 1.752l-2.554 2.19 6.144 5.46c.826.732.9 1.998.166 2.822A1.99 1.99 0 0 1 32 34c-.472 0-.948-.166-1.328-.506l-6.552-5.822-6.82 5.846c-.376.324-.84.482-1.3.482a1.986 1.986 0 0 1-1.518-.7c-.72-.838-.624-2.1.216-2.818l6.406-5.49-.7-.622a4.01 4.01 0 0 1-5.232-.37L12 20.828a4.003 4.003 0 0 1 0-5.656l.586-.586a2.001 2.001 0 0 1 2.742-.08l8.842 7.86 2.742-2.35c-.352-1.648.25-3.632 1.756-5.14 2.152-2.152 5.292-2.502 7.012-.782 1.72 1.718 1.37 4.856-.782 7.008z" fill="#327052"/>
    <path opacity=".35" d="M34.898 21.102c2.152-2.152 2.502-5.292.782-7.012-1.72-1.72-4.86-1.37-7.012.782-1.508 1.508-2.108 3.49-1.756 5.14l-2.742 2.35-8.842-7.86a2.001 2.001 0 0 0-2.742.08l-.586.59a4.003 4.003 0 0 0 0 5.656L15.172 24a4.01 4.01 0 0 0 5.232.37l.7.622-6.404 5.49a1.993 1.993 0 0 0-.216 2.818c.392.464.954.7 1.516.7.46 0 .924-.158 1.3-.482l6.82-5.846 6.552 5.822c.38.34.856.506 1.328.506.55 0 1.1-.226 1.494-.672.734-.824.66-2.09-.166-2.822l-6.144-5.46 2.554-2.19c1.654.36 3.646-.24 5.16-1.754z" fill="#327052"/>
</svg>
