<svg width="48" height="48" viewBox="0 0 48 48" fill="none" xmlns="http://www.w3.org/2000/svg">
    <path opacity=".35" d="M48 34h-4.544c.038-.146.096-.282.126-.43l2.32-11.588a4.974 4.974 0 0 0-1.036-4.15A4.97 4.97 0 0 0 41 16H7a4.97 4.97 0 0 0-3.866 1.832 4.977 4.977 0 0 0-1.036 4.15l2.32 11.588A8.021 8.021 0 0 0 12.262 40h23.476c1.99 0 3.834-.756 5.254-2H48v-4z" fill="#327052"/>
    <path d="m17.462 16 4.93-7.136c.38-.55.96-.824 1.652-.864.668 0 1.27.32 1.646.872L30.558 16h4.844l-6.41-9.386A5.998 5.998 0 0 0 24.052 4c-1.918.012-3.828.962-4.952 2.59L12.6 16h4.862zM44 28H24c-2.21 0-4 1.79-4 4v2h28v-2c0-2.21-1.79-4-4-4zM20 44c0 2.21 1.79 4 4 4h20c2.21 0 4-1.79 4-4v-6H20v6z" fill="#327052"/>
</svg>
