<svg width="21" height="20" viewBox="0 0 21 20" fill="none" xmlns="http://www.w3.org/2000/svg">
<path opacity="0.35" d="M16.7292 20H3.39583C1.55472 20 0.0625 18.5078 0.0625 16.6667V3.33333C0.0625 1.49222 1.55472 0 3.39583 0H16.7292C18.5703 0 20.0625 1.49222 20.0625 3.33333V16.6667C20.0625 18.5078 18.5703 20 16.7292 20Z" fill="#327052"/>
<path d="M17.2905 11.6501H16.415V8.00339C16.415 7.66227 16.1383 7.38672 15.7983 7.38672C15.4572 7.38672 15.1816 7.66339 15.1816 8.00339V12.0667C15.1816 12.4589 15.4994 12.7778 15.8928 12.7778H17.2916C17.6028 12.7778 17.855 12.5256 17.855 12.2145C17.855 11.9034 17.6028 11.6501 17.2905 11.6501Z" fill="#327052"/>
<path d="M3.94903 12.1456V10.1956H3.97347L5.02236 12.4034C5.13014 12.6323 5.36569 12.7779 5.62569 12.7779C6.12014 12.7779 6.44014 12.2745 6.21903 11.849L5.13569 9.76564L6.09236 8.12119C6.32458 7.71897 6.02347 7.2223 5.5468 7.2223C5.30903 7.2223 5.09236 7.3523 4.98792 7.55786L3.97347 9.53675H3.94903V7.85341C3.94903 7.50453 3.6568 7.22119 3.29458 7.22119C2.93347 7.22119 2.64014 7.50453 2.64014 7.85341V12.1456C2.64014 12.4945 2.93236 12.7779 3.29458 12.7779C3.65569 12.7779 3.94903 12.4945 3.94903 12.1456Z" fill="#327052"/>
<path d="M8.69836 8.36106C8.86169 8.36106 8.99614 8.39328 9.10614 8.43884C9.38169 8.5555 9.70725 8.50106 9.88836 8.28217C10.0984 8.02772 10.0328 7.66106 9.73392 7.49439C9.47058 7.34661 9.09947 7.22217 8.59947 7.22217C6.88836 7.22217 6.31836 8.83328 6.31836 9.99995C6.31836 11.0088 6.86058 12.7777 8.59947 12.7777C9.12503 12.7777 9.5028 12.6377 9.76503 12.4744C10.055 12.2955 10.105 11.9288 9.88503 11.6822L9.88392 11.6811C9.69503 11.4699 9.36836 11.4211 9.10169 11.5477C8.98947 11.6011 8.85725 11.6377 8.70725 11.6377C8.33725 11.6377 7.63725 11.3922 7.63725 9.99883C7.63614 8.60661 8.35503 8.36106 8.69836 8.36106Z" fill="#327052"/>
<path d="M12.6047 7.38672C12.1091 7.38672 11.6791 7.69339 11.5614 8.13005L10.5103 12.0512C10.4114 12.4212 10.7203 12.7778 11.1414 12.7778C11.4447 12.7778 11.708 12.5867 11.7747 12.3189L11.9047 11.7956H13.2403L13.3703 12.3189C13.4369 12.5878 13.7003 12.7778 14.0036 12.7778H14.0636C14.4836 12.7778 14.7936 12.4212 14.6947 12.0512L13.6503 8.13005C13.5314 7.6945 13.1003 7.38672 12.6047 7.38672ZM12.0547 10.8512L12.558 8.55894H12.5914L13.0703 10.8512H12.0547Z" fill="#327052"/>
</svg>
