<svg width="21" height="21" viewBox="0 0 21 21" fill="none" xmlns="http://www.w3.org/2000/svg">
<path opacity="0.35" d="M10.25 20.5C15.9109 20.5 20.5 15.9109 20.5 10.25C20.5 4.58908 15.9109 0 10.25 0C4.58908 0 0 4.58908 0 10.25C0 15.9109 4.58908 20.5 10.25 20.5Z" fill="#327052"/>
<path d="M20.5001 10.25C20.5001 10.9675 20.3976 11.685 20.2951 12.3H13.3251V14.4525C13.3251 15.2725 12.4026 15.6825 11.7876 15.0675L7.79014 11.07C7.27764 10.5575 7.27764 9.7375 7.79014 9.225L11.7876 5.2275C12.4026 4.8175 13.3251 5.2275 13.3251 6.0475V8.2H20.2951C20.3976 8.815 20.5001 9.5325 20.5001 10.25Z" fill="#327052"/>
</svg>
