<svg width="41" height="48" viewBox="0 0 41 48" fill="none" xmlns="http://www.w3.org/2000/svg">
<g id="Component 4">
<path id="Vector" opacity="0.35" d="M26.416 47.4972C22.0054 47.4972 17.8778 45.4595 15.1598 41.7949C13.9976 40.2274 12.3498 38.8071 9.97366 37.3227C2.94649 32.929 -0.643707 24.7495 0.824903 16.4821C2.2558 8.42136 8.57106 1.95186 16.5341 0.389115C22.5311 -0.79126 28.6271 0.74299 33.2663 4.59524C37.9079 8.44986 40.5693 14.1309 40.5693 20.1847C40.5693 21.4364 40.4515 22.6927 40.2204 23.9182C39.9022 25.595 39.6028 27.7539 40.0955 29.6111C40.7461 32.0669 40.7202 34.7007 40.0154 37.223C38.6481 42.1226 34.5864 46.0129 29.6691 47.1291C28.58 47.3761 27.4886 47.4972 26.416 47.4972ZM20.558 7.11986C19.6764 7.11986 18.7853 7.20774 17.8872 7.38349C12.7671 8.39049 8.70778 12.5515 7.78607 17.7409C6.83136 23.1155 9.15332 28.426 13.7006 31.2712C16.85 33.2401 19.113 35.2304 20.8221 37.5317C22.5075 39.8022 25.2986 40.8164 28.1156 40.1799C30.5342 39.6312 32.5356 37.7122 33.2098 35.2945C33.5752 33.9859 33.594 32.6939 33.264 31.4541C32.4012 28.2027 32.8161 25.0084 33.2734 22.5882C33.4219 21.7997 33.4974 20.9899 33.4974 20.1847C33.4974 16.2684 31.7742 12.5895 28.7686 10.0957C26.4113 8.13874 23.5636 7.11986 20.558 7.11986Z" fill="#FF0000"/>
<path id="Vector_2" d="M33.2734 22.5859C33.4219 21.7997 33.4973 20.9899 33.4973 20.1847C33.4973 16.2684 31.7741 12.5895 28.7685 10.0957C26.4112 8.13875 23.5636 7.11987 20.558 7.11987C19.6764 7.11987 18.7853 7.20775 17.8872 7.3835C12.7671 8.3905 8.70775 12.5515 7.78604 17.7409C6.83132 23.1155 9.15328 28.426 13.7006 31.2712C16.8499 33.2401 19.113 35.2304 20.822 37.5317C22.5075 39.8046 25.2962 40.8187 28.1156 40.1799C30.5342 39.6312 32.5355 37.7122 33.2097 35.2945C33.5751 33.9859 33.594 32.6939 33.264 31.4541C32.4012 28.2004 32.8137 25.006 33.2734 22.5859ZM22.8894 21.3722C20.9375 21.3722 19.3534 19.7762 19.3534 17.8097C19.3534 15.8432 20.9375 14.2472 22.8894 14.2472C24.8412 14.2472 26.4254 15.8432 26.4254 17.8097C26.4254 19.7762 24.8412 21.3722 22.8894 21.3722Z" fill="white"/>
<path id="Vector_3" opacity="0.35" d="M22.8894 21.3723C24.8423 21.3723 26.4254 19.7773 26.4254 17.8098C26.4254 15.8423 24.8423 14.2473 22.8894 14.2473C20.9366 14.2473 19.3535 15.8423 19.3535 17.8098C19.3535 19.7773 20.9366 21.3723 22.8894 21.3723Z" fill="#575757"/>
</g>
</svg>
