<svg width="100" height="100" viewBox="0 0 100 100" fill="none" xmlns="http://www.w3.org/2000/svg">
<rect width="100" height="100" rx="15" fill="#F3F3F2"/>
<path d="M34.592 59.144C33.616 59.144 32.896 58.888 32.432 58.376C31.984 57.848 31.76 57.2 31.76 56.432C31.76 56.096 31.8 55.72 31.88 55.304C31.96 54.872 32.04 54.456 32.12 54.056C32.216 53.656 32.28 53.4 32.312 53.288C32.44 52.728 32.56 52.176 32.672 51.632C32.784 51.088 32.84 50.648 32.84 50.312C32.84 49.496 32.552 49.088 31.976 49.088C31.56 49.088 31.192 49.296 30.872 49.712C30.552 50.112 30.296 50.64 30.104 51.296L28.472 59H25.016L26.768 50.72C26.816 50.528 26.84 50.328 26.84 50.12C26.84 49.416 26.6 49.064 26.12 49.064C25.672 49.064 25.28 49.272 24.944 49.688C24.624 50.088 24.368 50.624 24.176 51.296L22.544 59H19.088L21.632 47H25.088L24.824 48.248C25.64 47.336 26.616 46.88 27.752 46.88C29.16 46.88 29.984 47.568 30.224 48.944C31.104 47.584 32.216 46.904 33.56 46.904C34.376 46.904 35.024 47.128 35.504 47.576C35.984 48.024 36.224 48.704 36.224 49.616C36.224 50.08 36.168 50.6 36.056 51.176C35.944 51.736 35.784 52.424 35.576 53.24C35.448 53.736 35.328 54.224 35.216 54.704C35.12 55.168 35.072 55.536 35.072 55.808C35.072 56.128 35.144 56.376 35.288 56.552C35.432 56.728 35.68 56.816 36.032 56.816C36.512 56.816 36.896 56.648 37.184 56.312C37.472 55.96 37.76 55.424 38.048 54.704H39.056C38.464 56.464 37.776 57.648 36.992 58.256C36.224 58.848 35.424 59.144 34.592 59.144ZM41.4789 59.144C40.2949 59.144 39.3749 58.84 38.7189 58.232C38.0629 57.608 37.7349 56.64 37.7349 55.328C37.7349 54.224 37.9509 53.008 38.3829 51.68C38.8149 50.352 39.5189 49.208 40.4949 48.248C41.4709 47.272 42.7109 46.784 44.2149 46.784C45.9749 46.784 46.8549 47.552 46.8549 49.088C46.8549 49.984 46.5989 50.808 46.0869 51.56C45.5749 52.312 44.8949 52.92 44.0469 53.384C43.1989 53.832 42.2949 54.088 41.3349 54.152C41.3029 54.632 41.2869 54.952 41.2869 55.112C41.2869 55.896 41.4229 56.432 41.6949 56.72C41.9669 56.992 42.4069 57.128 43.0149 57.128C43.8789 57.128 44.6149 56.928 45.2229 56.528C45.8469 56.128 46.5269 55.52 47.2629 54.704H48.0789C46.3029 57.664 44.1029 59.144 41.4789 59.144ZM41.5269 53C42.1189 52.968 42.6789 52.76 43.2069 52.376C43.7509 51.992 44.1829 51.504 44.5029 50.912C44.8389 50.32 45.0069 49.696 45.0069 49.04C45.0069 48.384 44.8069 48.056 44.4069 48.056C43.8309 48.056 43.2629 48.56 42.7029 49.568C42.1589 50.576 41.7669 51.72 41.5269 53ZM50.1378 59.144C49.2258 59.144 48.4658 58.832 47.8578 58.208C47.2498 57.584 46.9458 56.608 46.9458 55.28C46.9458 54.096 47.1778 52.856 47.6418 51.56C48.1218 50.248 48.8258 49.144 49.7538 48.248C50.6978 47.336 51.8178 46.88 53.1138 46.88C53.7698 46.88 54.2578 46.992 54.5778 47.216C54.8978 47.44 55.0578 47.736 55.0578 48.104V48.272L55.3218 47H58.7778L57.0498 55.16C56.9858 55.4 56.9538 55.656 56.9538 55.928C56.9538 56.616 57.2818 56.96 57.9378 56.96C58.3858 56.96 58.7698 56.752 59.0898 56.336C59.4258 55.92 59.6898 55.376 59.8818 54.704H60.8898C60.2978 56.432 59.5618 57.608 58.6818 58.232C57.8178 58.84 56.9458 59.144 56.0658 59.144C55.3938 59.144 54.8498 58.96 54.4338 58.592C54.0338 58.208 53.7938 57.656 53.7138 56.936C53.2498 57.592 52.7298 58.128 52.1538 58.544C51.5938 58.944 50.9218 59.144 50.1378 59.144ZM51.6978 56.816C52.0978 56.816 52.4898 56.632 52.8738 56.264C53.2738 55.88 53.5458 55.36 53.6898 54.704L54.8418 49.28C54.8418 49.072 54.7618 48.872 54.6018 48.68C54.4418 48.472 54.1938 48.368 53.8578 48.368C53.2178 48.368 52.6418 48.744 52.1298 49.496C51.6178 50.232 51.2178 51.128 50.9298 52.184C50.6418 53.224 50.4978 54.144 50.4978 54.944C50.4978 55.744 50.6098 56.256 50.8338 56.48C51.0738 56.704 51.3618 56.816 51.6978 56.816ZM62.2666 59.144C61.4986 59.144 60.8746 58.904 60.3946 58.424C59.9306 57.944 59.6986 57.224 59.6986 56.264C59.6986 55.864 59.7626 55.344 59.8906 54.704L62.4586 42.68L66.0106 42.2L63.2506 55.16C63.1866 55.4 63.1546 55.656 63.1546 55.928C63.1546 56.248 63.2266 56.48 63.3706 56.624C63.5306 56.752 63.7866 56.816 64.1386 56.816C64.6026 56.816 65.0346 56.624 65.4346 56.24C65.8346 55.84 66.1226 55.328 66.2986 54.704H67.3066C66.7146 56.432 65.9546 57.608 65.0266 58.232C64.0986 58.84 63.1786 59.144 62.2666 59.144ZM70.2971 45.704C69.7691 45.704 69.3211 45.52 68.9531 45.152C68.5851 44.784 68.4011 44.336 68.4011 43.808C68.4011 43.28 68.5851 42.832 68.9531 42.464C69.3211 42.08 69.7691 41.888 70.2971 41.888C70.8251 41.888 71.2731 42.08 71.6411 42.464C72.0251 42.832 72.2171 43.28 72.2171 43.808C72.2171 44.336 72.0251 44.784 71.6411 45.152C71.2731 45.52 70.8251 45.704 70.2971 45.704ZM68.6651 59.144C67.8971 59.144 67.2731 58.904 66.7931 58.424C66.3291 57.944 66.0971 57.224 66.0971 56.264C66.0971 55.864 66.1611 55.344 66.2891 54.704L67.9211 47H71.3771L69.6491 55.16C69.5851 55.4 69.5531 55.656 69.5531 55.928C69.5531 56.248 69.6251 56.48 69.7691 56.624C69.9291 56.752 70.1851 56.816 70.5371 56.816C71.0011 56.816 71.4331 56.624 71.8331 56.24C72.2331 55.84 72.5211 55.328 72.6971 54.704H73.7051C73.1131 56.432 72.3531 57.608 71.4251 58.232C70.4971 58.84 69.5771 59.144 68.6651 59.144ZM74.9435 59.144C74.1275 59.144 73.5195 58.896 73.1195 58.4C72.7355 57.904 72.5435 57.248 72.5435 56.432C72.5435 56.016 72.5915 55.592 72.6875 55.16L74.2235 47.96H73.4315L73.6235 47H74.4155L75.1355 43.688L78.6875 43.208C78.5435 43.816 78.4635 44.176 78.4475 44.288C78.3355 44.736 78.1435 45.64 77.8715 47H79.3115L79.1195 47.96H77.6795L76.1435 55.16C76.0635 55.512 76.0235 55.792 76.0235 56C76.0235 56.576 76.3035 56.864 76.8635 56.864C77.1515 56.864 77.3595 56.84 77.4875 56.792C77.1675 57.72 76.7915 58.344 76.3595 58.664C75.9275 58.984 75.4555 59.144 74.9435 59.144Z" fill="#327052"/>
</svg>
