<svg width="16" height="16" viewBox="0 0 16 16" fill="none" xmlns="http://www.w3.org/2000/svg">
<path fill-rule="evenodd" clip-rule="evenodd" d="M7.50013 14.2509C7.50013 14.527 7.72399 14.7509 8.00013 14.7509C8.27628 14.7509 8.50013 14.527 8.50013 14.2509V8.49995H14.2556C14.5318 8.49995 14.7556 8.27609 14.7556 7.99995C14.7556 7.7238 14.5318 7.49995 14.2556 7.49995H8.50013V1.74902C8.50013 1.47288 8.27628 1.24902 8.00013 1.24902C7.72399 1.24902 7.50013 1.47288 7.50013 1.74902V7.49995H1.74463C1.46849 7.49995 1.24463 7.7238 1.24463 7.99995C1.24463 8.27609 1.46849 8.49995 1.74463 8.49995H7.50013V14.2509Z" fill="#575757"/>
<path d="M8.50013 8.49995V7.49995H7.50013V8.49995H8.50013ZM8.50013 7.49995H7.50013V8.49995H8.50013V7.49995ZM7.50013 7.49995V8.49995H8.50013V7.49995H7.50013ZM7.50013 8.49995H8.50013V7.49995H7.50013V8.49995ZM8.00013 13.7509C8.27628 13.7509 8.50013 13.9747 8.50013 14.2509H6.50013C6.50013 15.0793 7.17171 15.7509 8.00013 15.7509V13.7509ZM7.50013 14.2509C7.50013 13.9747 7.72399 13.7509 8.00013 13.7509V15.7509C8.82856 15.7509 9.50013 15.0793 9.50013 14.2509H7.50013ZM7.50013 8.49995V14.2509H9.50013V8.49995H7.50013ZM14.2556 7.49995H8.50013V9.49995H14.2556V7.49995ZM13.7556 7.99995C13.7556 7.7238 13.9795 7.49995 14.2556 7.49995V9.49995C15.084 9.49995 15.7556 8.82837 15.7556 7.99995H13.7556ZM14.2556 8.49995C13.9795 8.49995 13.7556 8.27609 13.7556 7.99995H15.7556C15.7556 7.17152 15.084 6.49995 14.2556 6.49995V8.49995ZM8.50013 8.49995H14.2556V6.49995H8.50013V8.49995ZM7.50013 1.74902V7.49995H9.50013V1.74902H7.50013ZM8.00013 2.24902C7.72399 2.24902 7.50013 2.02517 7.50013 1.74902H9.50013C9.50013 0.920595 8.82856 0.249023 8.00013 0.249023V2.24902ZM8.50013 1.74902C8.50013 2.02517 8.27628 2.24902 8.00013 2.24902V0.249023C7.17171 0.249023 6.50013 0.920595 6.50013 1.74902H8.50013ZM8.50013 7.49995V1.74902H6.50013V7.49995H8.50013ZM1.74463 8.49995H7.50013V6.49995H1.74463V8.49995ZM2.24463 7.99995C2.24463 8.27609 2.02077 8.49995 1.74463 8.49995V6.49995C0.916202 6.49995 0.244629 7.17152 0.244629 7.99995H2.24463ZM1.74463 7.49995C2.02077 7.49995 2.24463 7.7238 2.24463 7.99995H0.244629C0.244629 8.82837 0.916202 9.49995 1.74463 9.49995V7.49995ZM7.50013 7.49995H1.74463V9.49995H7.50013V7.49995ZM8.50013 14.2509V8.49995H6.50013V14.2509H8.50013Z" fill="#575757"/>
</svg>
