<svg width="64" height="63" viewBox="0 0 64 63" fill="none" xmlns="http://www.w3.org/2000/svg">
<path d="M56.6444 39.9292C56.2587 41.496 55.8488 43.0684 55.436 44.6295C55.1783 45.591 54.8016 46.5142 54.7636 47.5326C54.7547 47.8138 54.9581 48.1476 54.7144 48.3635L54.719 48.3565C54.701 48.6517 54.7447 48.9624 54.65 49.2335C54.3075 50.2618 54.1409 51.3986 53.6556 52.3466C53.6404 52.3857 53.7048 52.4601 53.688 52.5174C53.5932 52.7884 53.1939 53.7466 53.0281 54.3783C52.6353 55.8457 52.1808 57.2975 51.1138 58.5859C50.9501 58.7895 49.4031 61.8206 47.5008 61.3035C45.5143 60.7581 45.8476 57.5401 46.0498 57.1674C46.5273 56.2627 47.2833 55.4194 47.2325 54.3796C47.1614 52.8515 47.8639 51.5392 48.1931 50.1219C48.4901 48.8485 48.9796 47.6263 49.257 46.3515C49.5158 45.1521 49.4512 43.8661 49.8335 42.698C50.1623 41.6906 50.9727 40.8111 51.467 39.8492C51.5857 39.6202 51.3192 39.2413 51.432 38.99C51.5249 38.7847 51.6471 38.4242 51.883 38.2517C51.9844 38.1752 52.1007 38.1071 52.059 37.9978C51.8625 37.4961 53.4 34.2593 55.7085 34.9096C57.9719 35.5345 56.9734 38.5595 56.6444 39.9292Z" fill="url(#paint0_linear_204_134)" fill-opacity="0.79"/>
<path d="M38.6036 27.6411C37.5489 28.5899 36.4889 29.5211 35.4166 30.4517C34.7591 31.0174 34.0197 31.4978 33.5076 32.2272C33.3706 32.4279 33.3732 32.7863 33.0668 32.8103C32.9108 33.0157 32.8017 33.2699 32.5997 33.4151C31.8356 33.9924 31.1674 34.7308 30.3309 35.1713C30.2988 35.1869 30.3179 35.2804 30.2785 35.313C30.07 35.4636 29.3051 35.9541 28.8648 36.3292C27.8522 37.1994 26.8053 38.0216 25.3507 38.3943C25.1232 38.4514 22.4592 39.8571 21.1718 38.4417C19.8378 36.9776 21.6296 34.7855 21.9578 34.6124C22.7673 34.2052 23.7762 33.9935 24.2241 33.197C24.8875 32.0365 26.0755 31.4473 27.0071 30.5785C27.846 29.7972 28.8187 29.1675 29.6395 28.3795C30.4136 27.641 30.9729 26.654 31.8288 26.0007C32.5732 25.4397 33.6317 25.2307 34.4813 24.7793C34.6869 24.6748 34.6449 24.2507 34.8578 24.1293C35.0321 24.0288 35.2997 23.8294 35.5609 23.8318C35.6791 23.8324 35.809 23.8451 35.8279 23.7421C35.9134 23.2671 38.6611 21.7157 40.2093 23.4398C41.7414 25.1225 39.5075 26.8171 38.6036 27.6411Z" fill="url(#paint1_linear_204_134)" fill-opacity="0.79"/>
<path d="M27.0529 12.3904C25.259 12.8113 23.4564 13.218 21.6571 13.6136C20.5535 13.858 19.423 13.9759 18.3669 14.4298C18.0788 14.5537 17.8338 14.8799 17.4897 14.78L17.4973 14.776C17.1897 14.9007 16.8928 15.0761 16.5657 15.1361C15.3456 15.3387 14.101 15.7326 12.8999 15.7845C12.853 15.7904 12.807 15.8804 12.7405 15.8873C12.4167 15.9362 11.2513 16.063 10.513 16.2273C8.8184 16.5958 7.11633 16.9026 5.28716 16.6384C5.00171 16.6013 1.15412 16.7545 0.775257 14.9464C0.387887 13.0584 3.84273 11.8176 4.32229 11.8085C5.48091 11.7697 6.70203 11.9981 7.7464 11.4753C9.2797 10.6946 10.9658 10.6589 12.5722 10.2619C14.0194 9.90191 15.5053 9.73731 16.9438 9.36315C18.2972 9.0151 19.5894 8.35222 20.9686 8.1125C22.1571 7.90776 23.4425 8.1586 24.6676 8.11281C24.9543 8.10233 25.2191 7.70931 25.5319 7.67562C25.7903 7.65192 26.2155 7.58711 26.4975 7.70108C26.6183 7.74993 26.7478 7.81296 26.8451 7.72413C27.2668 7.32337 31.313 7.06543 31.7541 9.27234C32.1953 11.4135 28.6135 12.0175 27.0529 12.3904Z" fill="url(#paint2_linear_204_134)" fill-opacity="0.79"/>
<defs>
<linearGradient id="paint0_linear_204_134" x1="59.3231" y1="41.8803" x2="24.1585" y2="34.3189" gradientUnits="userSpaceOnUse">
<stop stop-color="#327052"/>
<stop offset="1" stop-color="#327052" stop-opacity="0"/>
<stop offset="1" stop-color="#327052" stop-opacity="0.29"/>
</linearGradient>
<linearGradient id="paint1_linear_204_134" x1="38.2732" y1="27.0285" x2="21.222" y2="14.3502" gradientUnits="userSpaceOnUse">
<stop stop-color="#327052"/>
<stop offset="1" stop-color="#327052" stop-opacity="0"/>
<stop offset="1" stop-color="#327052" stop-opacity="0.29"/>
</linearGradient>
<linearGradient id="paint2_linear_204_134" x1="26.9447" y1="10.3221" x2="-3.02487" y2="-15.6501" gradientUnits="userSpaceOnUse">
<stop stop-color="#327052"/>
<stop offset="1" stop-color="#327052" stop-opacity="0"/>
<stop offset="1" stop-color="#327052" stop-opacity="0.29"/>
</linearGradient>
</defs>
</svg>
