<svg width="14" height="29" viewBox="0 0 14 29" fill="none" xmlns="http://www.w3.org/2000/svg">
<path d="M7.98619 1.1363C7.40008 1.68021 6.82052 2.2277 6.24096 2.77877C5.88733 3.11871 5.56317 3.49444 5.1506 3.76639C5.03928 3.84154 4.86901 3.8487 4.81662 3.99899V3.99541C4.69874 4.07771 4.5645 4.13854 4.46627 4.24231C4.09299 4.63236 3.6575 4.98303 3.33989 5.40528C3.32679 5.42317 3.28422 5.41601 3.26458 5.43748C3.16635 5.54126 2.83564 5.9313 2.59988 6.15674C2.05634 6.6756 1.53245 7.21593 1.16572 7.94233C1.11005 8.05684 0.098279 9.40589 0.609077 9.99274C1.13952 10.6046 2.40997 9.66353 2.5344 9.49535C2.83236 9.08383 3.06157 8.58644 3.49706 8.34311C4.13555 7.98528 4.56777 7.38411 5.09822 6.90461C5.57627 6.47163 6.00194 5.97782 6.48327 5.54841C6.93513 5.14764 7.47539 4.84706 7.89779 4.40692C8.26124 4.02762 8.49699 3.50159 8.81788 3.07219C8.89319 2.972 9.08965 2.97558 9.17806 2.86823C9.25009 2.77877 9.37779 2.64279 9.41054 2.51039C9.42363 2.45314 9.43673 2.38873 9.48585 2.37799C9.7216 2.32432 10.812 0.928753 10.1898 0.220238C9.58735 -0.477542 8.49372 0.663959 7.98619 1.1363Z" fill="#327052"/>
<path d="M8.44152 13.7533C7.87506 13.9179 7.3086 14.0896 6.74541 14.265C6.39833 14.3723 6.06762 14.5298 5.69761 14.5512C5.59611 14.5584 5.46841 14.4761 5.3931 14.5763C5.28505 14.587 5.17044 14.5691 5.07221 14.6085C4.70221 14.7516 4.28964 14.8268 3.95238 15.0272C3.93929 15.0343 3.90982 15.0057 3.89017 15.0164C3.79194 15.0558 3.45141 15.2204 3.22221 15.292C2.69176 15.4601 2.17114 15.6498 1.72583 16.0864C1.65707 16.1543 0.579804 16.7949 0.815557 17.5606C1.06113 18.3586 2.23663 18.2047 2.37087 18.126C2.69176 17.9292 2.98318 17.6179 3.36628 17.6322C3.92947 17.6537 4.39442 17.3603 4.9085 17.2207C5.37018 17.0955 5.80567 16.8879 6.26735 16.7698C6.70284 16.6589 7.17435 16.6768 7.59346 16.5158C7.95364 16.3762 8.25816 16.047 8.59869 15.843C8.68055 15.7965 8.82462 15.9003 8.9163 15.8538C8.99161 15.8144 9.11931 15.7607 9.17498 15.6677C9.1979 15.6283 9.22409 15.5782 9.26339 15.5925C9.4533 15.6677 10.6026 15.0307 10.3079 14.1039C10.023 13.1915 8.93267 13.6101 8.44152 13.7533Z" fill="#327052"/>
<path d="M11.8081 26.819C10.9961 26.6222 10.184 26.4361 9.36873 26.25C8.86775 26.1355 8.36023 26.0747 7.87562 25.8707C7.74465 25.8135 7.6235 25.6703 7.47288 25.7133H7.47615C7.33535 25.656 7.19783 25.5773 7.05376 25.5487C6.50367 25.452 5.94048 25.2695 5.40021 25.2409C5.38056 25.2409 5.35764 25.198 5.3249 25.1908C5.17756 25.1658 4.65366 25.1049 4.32295 25.0298C3.55675 24.858 2.78728 24.7113 1.97851 24.8187C1.85081 24.8366 0.128504 24.7435 0.00735283 25.5415C-0.120347 26.3717 1.45462 26.9406 1.67072 26.9478C2.18807 26.9693 2.72834 26.8762 3.20967 27.116C3.91366 27.4667 4.66676 27.4953 5.39694 27.6778C6.05181 27.8424 6.71978 27.9283 7.37465 28.1C7.98695 28.2611 8.57961 28.5616 9.20173 28.6726C9.73873 28.7692 10.3085 28.6654 10.8553 28.694C10.983 28.7012 11.114 28.8765 11.2515 28.8908C11.3661 28.9016 11.5593 28.9338 11.6837 28.8837C11.7361 28.8622 11.795 28.8336 11.8376 28.8729C12.0373 29.0519 13.848 29.1878 13.9921 28.2181C14.1264 27.2806 12.5121 26.9907 11.8081 26.819Z" fill="#327052"/>
</svg>
