<svg width="14" height="29" viewBox="0 0 14 29" fill="none" xmlns="http://www.w3.org/2000/svg">
<path d="M6.01356 1.1363C6.59967 1.68021 7.17923 2.2277 7.75879 2.77877C8.11242 3.11871 8.43658 3.49444 8.84915 3.76639C8.96048 3.84154 9.13074 3.8487 9.18313 3.99899V3.99541C9.30101 4.07771 9.43526 4.13854 9.53349 4.24231C9.90677 4.63236 10.3423 4.98303 10.6599 5.40528C10.673 5.42317 10.7155 5.41601 10.7352 5.43748C10.8334 5.54126 11.1641 5.9313 11.3999 6.15674C11.9434 6.6756 12.4673 7.21593 12.834 7.94233C12.8897 8.05684 13.9015 9.40589 13.3907 9.99274C12.8602 10.6046 11.5898 9.66353 11.4654 9.49535C11.1674 9.08383 10.9382 8.58644 10.5027 8.34311C9.8642 7.98528 9.43199 7.38411 8.90154 6.90461C8.42349 6.47163 7.99782 5.97782 7.51649 5.54841C7.06463 5.14764 6.52436 4.84706 6.10197 4.40692C5.73852 4.02762 5.50276 3.50159 5.18188 3.07219C5.10657 2.972 4.91011 2.97558 4.8217 2.86823C4.74966 2.77877 4.62196 2.64279 4.58922 2.51039C4.57612 2.45314 4.56302 2.38873 4.51391 2.37799C4.27816 2.32432 3.1878 0.928753 3.80992 0.220238C4.4124 -0.477542 5.50604 0.663959 6.01356 1.1363Z" fill="#327052"/>
<path d="M5.55848 13.7533C6.12494 13.9179 6.6914 14.0896 7.25459 14.265C7.60167 14.3723 7.93238 14.5298 8.30239 14.5512C8.40389 14.5584 8.53159 14.4761 8.6069 14.5763C8.71495 14.587 8.82956 14.5691 8.92779 14.6085C9.29779 14.7516 9.71036 14.8268 10.0476 15.0272C10.0607 15.0343 10.0902 15.0057 10.1098 15.0164C10.2081 15.0558 10.5486 15.2204 10.7778 15.292C11.3082 15.4601 11.8289 15.6498 12.2742 16.0864C12.3429 16.1543 13.4202 16.7949 13.1844 17.5606C12.9389 18.3586 11.7634 18.2047 11.6291 18.126C11.3082 17.9292 11.0168 17.6179 10.6337 17.6322C10.0705 17.6537 9.60558 17.3603 9.0915 17.2207C8.62982 17.0955 8.19433 16.8879 7.73265 16.7698C7.29716 16.6589 6.82565 16.6768 6.40654 16.5158C6.04636 16.3762 5.74184 16.047 5.40131 15.843C5.31945 15.7965 5.17538 15.9003 5.0837 15.8538C5.00839 15.8144 4.88069 15.7607 4.82502 15.6677C4.8021 15.6283 4.77591 15.5782 4.73661 15.5925C4.5467 15.6677 3.39741 15.0307 3.6921 14.1039C3.97697 13.1915 5.06733 13.6101 5.55848 13.7533Z" fill="#327052"/>
<path d="M2.19188 26.819C3.00392 26.6222 3.81596 26.4361 4.63127 26.25C5.13225 26.1355 5.63977 26.0747 6.12438 25.8707C6.25535 25.8135 6.3765 25.6703 6.52712 25.7133H6.52385C6.66465 25.656 6.80217 25.5773 6.94624 25.5487C7.49633 25.452 8.05952 25.2695 8.59979 25.2409C8.61944 25.2409 8.64236 25.198 8.6751 25.1908C8.82244 25.1658 9.34634 25.1049 9.67705 25.0298C10.4432 24.858 11.2127 24.7113 12.0215 24.8187C12.1492 24.8366 13.8715 24.7435 13.9926 25.5415C14.1203 26.3717 12.5454 26.9406 12.3293 26.9478C11.8119 26.9693 11.2717 26.8762 10.7903 27.116C10.0863 27.4667 9.33324 27.4953 8.60306 27.6778C7.94819 27.8424 7.28022 27.9283 6.62535 28.1C6.01305 28.2611 5.42039 28.5616 4.79827 28.6726C4.26127 28.7692 3.69154 28.6654 3.14472 28.694C3.01702 28.7012 2.88604 28.8765 2.74852 28.8908C2.63392 28.9016 2.44073 28.9338 2.31631 28.8837C2.26392 28.8622 2.20498 28.8336 2.16241 28.8729C1.96268 29.0519 0.15196 29.1878 0.00788803 28.2181C-0.12636 27.2806 1.48789 26.9907 2.19188 26.819Z" fill="#327052"/>
</svg>
