<svg width="11" height="19" viewBox="0 0 11 19" fill="none" xmlns="http://www.w3.org/2000/svg">
<path d="M10.45 0.375097C10.7 0.625097 10.825 0.921097 10.825 1.2631C10.825 1.6051 10.7 1.90076 10.45 2.1501L3.12495 9.4751L10.475 16.8251C10.7083 17.0584 10.825 17.3501 10.825 17.7001C10.825 18.0501 10.7 18.3501 10.45 18.6001C10.2 18.8501 9.90395 18.9751 9.56195 18.9751C9.21995 18.9751 8.92428 18.8501 8.67495 18.6001L0.27495 10.1751C0.17495 10.0751 0.103951 9.96676 0.0619507 9.8501C0.0199509 9.73343 -0.000716209 9.60843 -4.95911e-05 9.4751C-4.95911e-05 9.34176 0.0209503 9.21676 0.0629501 9.1001C0.10495 8.98343 0.175616 8.8751 0.27495 8.7751L8.69995 0.350098C8.93328 0.116764 9.22095 9.72748e-05 9.56295 9.72748e-05C9.90495 9.72748e-05 10.2006 0.125097 10.45 0.375097Z" fill="#327052"/>
</svg>
