<svg width="21" height="20" viewBox="0 0 21 20" fill="none" xmlns="http://www.w3.org/2000/svg">
<path opacity="0.35" d="M10.0625 19.8333C14.7569 19.8333 18.5625 16.0277 18.5625 11.3333C18.5625 6.63883 14.7569 2.83325 10.0625 2.83325C5.36808 2.83325 1.5625 6.63883 1.5625 11.3333C1.5625 16.0277 5.36808 19.8333 10.0625 19.8333Z" fill="#327052"/>
<path d="M8.72743 12.6688C8.30999 12.2514 6.65627 9.74294 5.29815 7.64249C4.84293 6.93888 5.66838 6.11344 6.37199 6.56771C8.47243 7.92583 10.9809 9.58049 11.3983 9.99699C12.1359 10.7346 12.1359 11.9303 11.3983 12.6679C10.6607 13.4064 9.46504 13.4064 8.72743 12.6688Z" fill="#327052"/>
<path d="M11.479 0C11.1144 0 9.01023 0 8.64567 0C7.86367 0 7.229 0.634667 7.229 1.41667C7.229 2.19867 7.86367 2.83333 8.64567 2.83333C9.01023 2.83333 11.1144 2.83333 11.479 2.83333C12.261 2.83333 12.8957 2.19867 12.8957 1.41667C12.8957 0.634667 12.261 0 11.479 0Z" fill="#327052"/>
<path d="M18.1481 3.91557C17.8903 3.65774 17.7382 3.50568 17.4804 3.24785C16.927 2.6944 16.0297 2.6944 15.4772 3.24785C14.9247 3.80129 14.9238 4.69851 15.4772 5.25101C15.7351 5.50885 15.8871 5.6609 16.145 5.91874C16.6984 6.47218 17.5956 6.47218 18.1481 5.91874C18.7006 5.36624 18.7006 4.46901 18.1481 3.91557Z" fill="#327052"/>
</svg>
