<svg width="130" height="60" viewBox="0 0 130 60" fill="none" xmlns="http://www.w3.org/2000/svg">
<path d="M76.5071 49.9459C77.431 49.9208 77.9264 50.2927 77.9934 51.0616C78.0316 51.501 77.8773 51.8557 77.5303 52.1257C77.2002 52.3758 76.7026 52.5114 76.0376 52.5324L75.2884 52.5422C72.1809 52.5914 70.4933 51.0782 70.2256 48.0025L69.7044 42.0159L68.3257 42.1359C67.8293 42.1791 67.4337 42.1029 67.1389 41.9072C66.8624 41.7099 66.7058 41.4007 66.6692 40.9796C66.6325 40.5586 66.7333 40.227 66.9715 39.9849C67.2281 39.7412 67.6046 39.5977 68.1009 39.5545L69.4797 39.4345L69.2597 36.908C69.2167 36.4137 69.3387 36.0065 69.6257 35.6864C69.9127 35.3663 70.3227 35.183 70.8559 35.1366C71.3706 35.0918 71.7969 35.2022 72.1349 35.4679C72.473 35.7336 72.6635 36.1137 72.7065 36.608L72.9265 39.1344L75.2703 38.9304C75.7666 38.8872 76.153 38.9642 76.4295 39.1615C76.7244 39.3572 76.8901 39.6656 76.9268 40.0866C76.9634 40.5077 76.8535 40.8401 76.5968 41.0838C76.3586 41.3259 75.9913 41.4686 75.495 41.5118L73.1512 41.7158L73.6939 47.9496C73.8118 49.3043 74.4998 49.9731 75.7578 49.9558L76.5071 49.9459Z" fill="#327052"/>
<path d="M86.8082 37.4279C87.283 37.3497 87.6686 37.4175 87.9651 37.6315C88.2615 37.8455 88.4305 38.1905 88.4719 38.6665C88.5149 39.1608 88.4273 39.5374 88.2091 39.7962C87.9908 40.055 87.5724 40.2482 86.9537 40.3759L86.1337 40.5302C85.0586 40.7345 84.2909 41.1703 83.8303 41.8376C83.3882 42.5032 83.2078 43.3029 83.289 44.2366L83.7911 50.0035C83.8373 50.5344 83.7077 50.9607 83.4023 51.2825C83.0953 51.5859 82.6937 51.7592 82.1973 51.8024C81.701 51.8456 81.2754 51.7443 80.9206 51.4985C80.5826 51.2328 80.3905 50.8345 80.3443 50.3036L79.4191 39.676C79.3745 39.1634 79.4965 38.7561 79.7851 38.4543C80.092 38.1509 80.4845 37.9784 80.9625 37.9368C81.4404 37.8952 81.8384 37.9989 82.1564 38.2479C82.4729 38.4786 82.6526 38.8411 82.6957 39.3354L82.7913 40.4339C83.0704 39.5979 83.531 38.9306 84.1729 38.432C84.8332 37.9318 85.5837 37.6175 86.4246 37.4889L86.8082 37.4279Z" fill="#327052"/>
<path d="M100.728 38.4355C100.847 38.0931 101.019 37.8383 101.245 37.6711C101.488 37.4839 101.757 37.3775 102.051 37.3519C102.474 37.3151 102.863 37.4287 103.22 37.6929C103.593 37.9371 103.798 38.2697 103.834 38.6908C103.852 38.8922 103.815 39.1075 103.724 39.3368L97.5636 55.7001C97.3053 56.3498 96.8452 56.7034 96.1835 56.761C95.7606 56.7978 95.3719 56.6933 95.0171 56.4475C94.6822 56.2184 94.4973 55.9025 94.4622 55.4997C94.4447 55.2983 94.4799 55.0647 94.5679 54.7988L96.1011 50.7085L90.0471 40.5275C89.9392 40.3524 89.8749 40.1459 89.8542 39.9079C89.8176 39.4868 89.9611 39.1146 90.2849 38.7912C90.627 38.4663 91.0279 38.2839 91.4875 38.2438C91.8 38.2166 92.0921 38.2742 92.3638 38.4166C92.6339 38.5406 92.8569 38.761 93.0326 39.0778L97.6317 47.2273L100.728 38.4355Z" fill="#327052"/>
<path d="M114.462 49.1873C113.965 49.2305 113.54 49.1292 113.185 48.8834C112.847 48.6176 112.655 48.2193 112.609 47.6884L111.686 37.0883C111.64 36.5573 111.761 36.141 112.049 35.8392C112.356 35.5357 112.758 35.3624 113.254 35.3192C113.751 35.276 114.176 35.3773 114.531 35.6231C114.886 35.8689 115.086 36.2573 115.133 36.7882L116.055 47.3883C116.102 47.9193 115.972 48.3456 115.667 48.6673C115.36 48.9707 114.958 49.144 114.462 49.1873ZM113.042 32.8751C112.416 32.9296 111.906 32.808 111.509 32.5105C111.112 32.1946 110.889 31.7621 110.841 31.2129C110.793 30.6636 110.939 30.2082 111.278 29.8467C111.617 29.4852 112.099 29.2772 112.724 29.2228C113.33 29.17 113.832 29.2923 114.228 29.5899C114.643 29.8858 114.874 30.3084 114.922 30.8576C114.97 31.4068 114.825 31.8714 114.487 32.2512C114.149 32.6128 113.667 32.8207 113.042 32.8751Z" fill="#327052"/>
<path d="M126.919 45.6688C127.843 45.6437 128.338 46.0156 128.405 46.7845C128.443 47.2239 128.289 47.5786 127.942 47.8486C127.612 48.0987 127.114 48.2342 126.449 48.2552L125.7 48.2651C122.593 48.3143 120.905 46.801 120.637 43.7253L120.116 37.7387L118.738 37.8588C118.241 37.902 117.846 37.8257 117.551 37.63C117.274 37.4328 117.118 37.1236 117.081 36.7025C117.044 36.2814 117.145 35.9498 117.383 35.7077C117.64 35.464 118.016 35.3206 118.513 35.2774L119.892 35.1574L119.672 32.6309C119.629 32.1366 119.751 31.7294 120.038 31.4093C120.325 31.0891 120.735 30.9059 121.268 30.8594C121.782 30.8146 122.209 30.9251 122.547 31.1908C122.885 31.4565 123.075 31.8365 123.118 32.3308L123.338 34.8573L125.682 34.6533C126.178 34.61 126.565 34.6871 126.841 34.8844C127.136 35.0801 127.302 35.3884 127.339 35.8095C127.375 36.2306 127.265 36.563 127.009 36.8067C126.77 37.0488 126.403 37.1914 125.907 37.2346L123.563 37.4387L124.106 43.6724C124.224 45.0272 124.912 45.6959 126.17 45.6787L126.919 45.6688Z" fill="#327052"/>
<path d="M28.3976 17.6694C27.9046 18.1096 26.7669 19.0787 25.5603 20.3023C24.946 20.8981 24.299 21.538 23.6925 22.1965C23.0838 22.8463 22.4716 23.4508 21.9758 24.0297C17.226 29.1832 13.1449 35.2013 9.97733 41.901C9.49461 42.9555 8.56911 44.6599 9.96957 45.8689C11.4326 47.1285 12.8735 46.7917 13.7469 45.0804C15.9031 40.96 18.1014 36.775 21.0224 33.4978C25.2624 28.7146 29.4946 23.9882 34.4389 20.4574C36.6592 18.8902 38.9667 17.5062 41.3388 16.3012C43.733 15.1281 46.2011 14.2332 48.7499 13.6149C53.5798 12.5847 58.622 12.7407 63.5686 13.5804C67.8274 14.2591 72.1761 15.2217 76.2802 17.4806C76.7634 17.7512 77.26 18.1384 77.7725 18.5313C78.2707 18.9549 78.7567 19.4181 79.2635 19.7571C80.1234 20.2757 81.4207 21.4154 82.2854 21.9238C82.6675 22.1338 83.0301 22.4126 83.3183 22.7723C84.6049 24.4389 85.3576 24.3002 85.9355 22.1389C86.0567 21.652 86.5069 21.3041 86.2765 20.674C86.2702 20.6478 86.2508 20.5968 86.2445 20.5706C85.9736 19.471 85.4343 18.7251 84.8262 18.1141C84.1876 17.5558 83.4734 17.1338 82.8258 16.5683C76.3735 11.1932 68.9511 8.26862 61.6973 7.34049C57.2245 6.79185 52.8227 7.11091 48.5026 7.77083C47.311 7.91443 46.08 7.98394 44.9628 8.49762L44.9834 8.49308C44.358 8.62202 43.7542 8.81063 43.1415 8.99201C42.5308 9.18213 41.916 9.35476 41.3289 9.61328C36.9198 11.526 32.5219 14.1171 28.9671 17.2767C28.8442 17.3959 28.6059 17.4853 28.3976 17.6694Z" fill="#327052"/>
<path d="M11.8742 39.5875C11.9296 39.0967 12.0651 37.3459 12.2214 36.2532C12.5864 33.7155 12.9021 31.1519 12.7028 28.4261C12.6728 28.0002 12.7478 27.3211 11.1427 26.7922C9.47433 26.2406 8.4446 26.3668 8.42313 27.0894C8.36983 28.822 8.53974 30.6433 8.04633 32.2247C7.32236 34.5287 7.24377 37.0583 6.85621 39.4721L6.73247 40.3093L6.53886 41.7876C6.39381 42.7767 6.31185 43.7886 6.39924 44.6344C6.47979 45.4816 6.669 46.2404 7.00255 46.9397C7.31345 47.6348 7.90194 48.3146 8.50763 48.7053L8.57505 48.7456C9.14554 49.0797 9.64933 49.2261 10.2576 49.2665C10.8611 49.3173 11.6103 49.1334 12.3491 48.7861L13.4747 48.3074L14.0501 48.0606L14.3868 47.931C14.7831 47.7791 15.173 47.6009 15.552 47.4067C16.859 46.7223 17.9733 45.5651 19.2131 44.7207C19.5036 44.5184 20.0186 44.6808 20.3454 44.4797C20.6147 44.3098 21.0743 44.061 21.2896 43.7558C21.3809 43.6252 21.4658 43.4684 21.6132 43.4819C22.2873 43.5262 22.1504 42.7742 21.0828 40.7279C20.8532 40.2817 20.6412 39.6384 20.3782 39.3836C20.3693 39.3764 20.3493 39.3532 20.3314 39.3387C19.399 38.2472 19.2462 39.0539 18.8199 39.2309C16.7521 40.1111 14.7363 41.1177 12.7011 42.0735L11.8241 42.5065C11.7598 42.5391 11.7025 42.5701 11.6408 42.5838C11.5197 42.6197 11.3963 42.647 11.3654 42.4882C11.3571 42.4532 11.3725 42.367 11.3969 42.288C11.4244 42.1623 11.4739 42.0685 11.3784 42.1816C11.4128 42.0544 11.5384 41.9162 11.5315 41.9177C11.5205 41.9018 11.5622 41.865 11.578 41.8707L11.5848 41.8692L11.6669 41.1885C11.7169 40.7357 11.7511 40.2772 11.7717 39.8218C11.7776 39.7561 11.863 39.6912 11.8742 39.5875Z" fill="#327052"/>
</svg>
