<svg width="13" height="16" viewBox="0 0 13 16" fill="none" xmlns="http://www.w3.org/2000/svg">
<path d="M3.22314 15.5705C2.90083 15.4631 2.57851 15.2483 2.36364 14.8188C2.14876 14.604 1.93388 14.2819 1.61157 13.8523C1.18182 13.2081 0.752066 12.349 0.429752 11.4899C0.107438 10.5235 0 9.55705 0 8.5906C0 7.51678 0.214876 6.65772 0.644628 5.90604C0.966942 5.26174 1.50413 4.83221 2.04132 4.40268C2.57851 4.08054 3.22314 3.86577 3.86777 3.86577C4.08264 3.86577 4.29752 3.86577 4.61983 3.97315C4.83471 3.97315 5.04959 4.08054 5.3719 4.18792C5.69421 4.2953 5.90909 4.40268 6.01653 4.40268C6.2314 4.51007 6.44628 4.51007 6.55372 4.51007C6.66116 4.51007 6.76859 4.51007 6.98347 4.40268C7.09091 4.40268 7.30578 4.2953 7.52066 4.18792C7.73554 4.08054 7.95041 3.97315 8.16529 3.97315C8.38016 3.97315 8.59504 3.86577 8.80992 3.86577C9.02479 3.86577 9.34711 3.75839 9.56198 3.86577C9.99173 3.86577 10.4215 3.97315 10.8512 4.18792C11.4959 4.40268 12.0331 4.9396 12.4628 5.47651C12.3554 5.47651 12.1405 5.58389 12.0331 5.79866C11.7107 6.1208 11.3884 6.44295 11.1736 6.7651C10.9587 7.30201 10.7438 7.83893 10.7438 8.48322C10.7438 9.2349 10.9587 9.87919 11.281 10.4161C11.4959 10.8456 11.9256 11.1678 12.2479 11.3825C12.5702 11.4899 12.7851 11.5973 12.8926 11.7047C12.8926 11.9195 12.7851 12.2416 12.6777 12.349C12.4628 12.9933 12.1405 13.4228 11.8182 13.9597C11.4959 14.3893 11.281 14.7114 11.1736 14.8188C10.8512 15.1409 10.6364 15.4631 10.314 15.5705C10.0992 15.7852 9.77686 15.8926 9.34711 15.8926C9.13223 15.8926 8.91735 15.8926 8.70248 15.7852C8.59504 15.7852 8.38016 15.6779 8.16529 15.5705C7.84297 15.4631 7.73554 15.3557 7.52066 15.3557C7.30578 15.2483 6.98347 15.2483 6.76859 15.2483C6.55372 15.2483 6.2314 15.2483 6.01653 15.3557C5.80165 15.3557 5.58678 15.4631 5.3719 15.5705C5.04959 15.6779 4.94215 15.7852 4.83471 15.7852C4.61983 15.8926 4.40496 15.8926 4.19008 15.8926C3.86777 15.8926 3.54545 15.7852 3.22314 15.5705ZM7.73554 3.32886C7.30578 3.54362 6.87603 3.65101 6.44628 3.65101C6.33884 3.22148 6.44628 2.79195 6.66116 2.25503C6.87603 1.8255 6.98347 1.50336 7.30578 1.18121C7.6281 0.85906 7.95041 0.536913 8.38016 0.322148C8.80992 0.107383 9.23967 0 9.66942 0C9.66942 0.42953 9.56198 0.85906 9.45455 1.39597C9.34711 1.8255 9.02479 2.14765 8.80992 2.4698C8.4876 2.89933 8.16529 3.11409 7.73554 3.32886Z" fill="#555555"/>
</svg>
