<svg width="21" height="22" viewBox="0 0 21 22" fill="none" xmlns="http://www.w3.org/2000/svg">
<g id="Group 14354">
<path id="Vector" opacity="0.35" d="M10.5 21.5C16.299 21.5 21 16.799 21 11C21 5.20101 16.299 0.5 10.5 0.5C4.70101 0.5 0 5.20101 0 11C0 16.799 4.70101 21.5 10.5 21.5Z" fill="#327052"/>
<path id="Vector_2" d="M9.45002 15.2C9.18122 15.2 8.91242 15.0971 8.70767 14.8924L5.55767 11.7424C5.14712 11.3318 5.14712 10.6682 5.55767 10.2577C5.96822 9.84712 6.63182 9.84712 7.04237 10.2577L9.45002 12.6653L19.2077 2.90767C19.6182 2.49712 20.2818 2.49712 20.6924 2.90767C21.1029 3.31822 21.1029 3.98182 20.6924 4.39237L10.1924 14.8924C9.98762 15.0971 9.71882 15.2 9.45002 15.2Z" fill="#327052"/>
</g>
</svg>
