<svg width="19" height="20" viewBox="0 0 19 20" fill="none" xmlns="http://www.w3.org/2000/svg">
<path d="M16.0625 20.0002C14.9585 20.0002 14.0625 19.1042 14.0625 18.0002V2.00002C14.0625 0.89601 14.9585 0 16.0625 0C17.1665 0 18.0625 0.89601 18.0625 2.00002V18.0002C18.0625 19.1042 17.1665 20.0002 16.0625 20.0002Z" fill="#327052"/>
<path d="M9.06252 20.0002C7.95851 20.0002 7.0625 19.1041 7.0625 18.0001V8.00002C7.0625 6.89601 7.95851 6 9.06252 6C10.1665 6 11.0625 6.89601 11.0625 8.00002V18.0001C11.0625 19.1041 10.1665 20.0002 9.06252 20.0002Z" fill="#327052"/>
<path d="M2.06252 20.0001C0.95851 20.0001 0.0625 19.1041 0.0625 18.0001V14C0.0625 12.896 0.95851 12 2.06252 12C3.16653 12 4.06254 12.896 4.06254 14V18.0001C4.06254 19.1041 3.16653 20.0001 2.06252 20.0001Z" fill="#327052"/>
</svg>
