<svg width="48" height="48" viewBox="0 0 48 48" fill="none" xmlns="http://www.w3.org/2000/svg">
    <path opacity=".35" d="M39.7 26c-.482-2.358-1.506-4-2.7-4-1.194 0-2.218 1.642-2.7 4H34V12a6 6 0 0 0-6-6H10a6 6 0 0 0-6 6v24a6 6 0 0 0 6 6h24V32h.3c.482 2.358 1.506 4 2.7 4 1.194 0 2.218-1.642 2.7-4h3.072c-.112-1.574.02-3.166.406-4.718.106-.424.15-.854.182-1.282H39.7z" fill="#327052"/>
    <path d="M26 16h-6a2 2 0 1 1 0-4h6a2 2 0 1 1 0 4zM26 24h-6a2 2 0 1 1 0-4h6a2 2 0 1 1 0 4zM26 32h-6a2 2 0 1 1 0-4h6a2 2 0 1 1 0 4zM12 16a2 2 0 1 0 0-4 2 2 0 0 0 0 4zM12 24a2 2 0 1 0 0-4 2 2 0 0 0 0 4zM12 32a2 2 0 1 0 0-4 2 2 0 0 0 0 4zM42.122 21.184a12.645 12.645 0 0 1-1.99-5.212C41.172 15.902 42 15.058 42 14a2 2 0 0 0-2-2h-6a2 2 0 0 0-2 2c0 1.058.828 1.902 1.868 1.974a12.666 12.666 0 0 1-1.99 5.212c-.954 1.43-1.364 3.126-1.238 4.816h3.66c.482-2.358 1.506-4 2.7-4 1.194 0 2.218 1.642 2.7 4h3.66c.128-1.692-.284-3.388-1.238-4.818zM43.806 36.514A15.051 15.051 0 0 1 42.772 32H39.7c-.482 2.358-1.506 4-2.7 4-1.194 0-2.218-1.642-2.7-4h-3.072a15.037 15.037 0 0 1-1.034 4.514c-1.05 2.628.884 5.486 3.714 5.486h6.184c2.83 0 4.764-2.858 3.714-5.486z" fill="#3D8964"/>
</svg>
