<svg width="17" height="20" viewBox="0 0 17 20" fill="none" xmlns="http://www.w3.org/2000/svg">
<path d="M13.7734 0H1.11719C0.535 0 0.0625 0.471579 0.0625 1.05263V18.9474C0.0625 19.5284 0.535 20 1.11719 20H13.7734C15.5211 20 16.9375 18.5863 16.9375 16.8421V3.15789C16.9375 1.41368 15.5211 0 13.7734 0ZM12.7188 11.2105V15.7895H4.28125V11.2105C3.03777 10.6179 2.17188 9.36211 2.17188 7.89474C2.17188 5.86 3.82457 4.21053 5.86328 4.21053C6.89793 4.21053 7.83027 4.6379 8.5 5.32211C9.16973 4.6379 10.1021 4.21053 11.1367 4.21053C13.1754 4.21053 14.8281 5.86 14.8281 7.89474C14.8281 9.36211 13.9622 10.6179 12.7188 11.2105Z" fill="#327052"/>
</svg>
