<svg width="175" height="8" viewBox="0 0 175 8" fill="none" xmlns="http://www.w3.org/2000/svg">
<path d="M116.002 0.028031C118.386 0.0423904 126.83 0.185979 132.243 0.15726C144.77 0.114182 157.299 0.142897 169.794 0.961383C171.748 1.09062 175.066 1.105 174.999 3.5461C174.928 6.08771 172.706 7.55237 169.301 7.45186C161.058 7.20775 152.772 6.59027 144.568 7.02105C132.57 7.6385 120.588 7.26519 108.602 7.3657C97.8372 7.45186 87.0725 7.29391 76.3077 7.40878C66.197 7.5093 56.0903 8.0406 45.9836 7.99752C37.2599 7.95444 28.5401 7.30827 19.8164 7.0498C17.7636 6.99236 15.2891 7.43749 13.0392 7.39441C11.1755 7.35133 8.07056 7.33697 6.22653 7.12158C5.4306 7.03542 4.60316 6.90619 3.82299 6.99235C0.241307 7.39441 -0.708297 6.5185 0.493477 3.73278C0.757474 3.11533 0.454065 2.32556 1.32092 1.89478C1.35638 1.88042 1.42732 1.83731 1.46279 1.82296C4.09093 0.142906 6.78604 0.932696 9.50087 0.903977C22.8268 0.746023 36.1566 0.760362 49.4825 0.702924C57.6586 0.674205 65.8464 0.803449 74.0106 0.487542C76.2447 0.401386 78.4827 0.0423957 80.7484 0.257787H80.709C83.0771 0.17163 85.4451 0.0136716 87.8093 0.028031C96.7655 0.0711092 106.116 -0.115552 114.705 0.128557C115.044 0.128557 115.501 0.028031 116.002 0.028031Z" fill="#FFD124"/>
</svg>
