<svg width="26" height="20" viewBox="0 0 26 20" fill="none" xmlns="http://www.w3.org/2000/svg">
<path opacity="0.35" d="M7.50818 20H19.5407C21.2022 20 22.5488 18.643 22.5488 16.9686V8.88501C22.5488 7.21069 21.2022 5.85365 19.5407 5.85365H7.50818C5.84669 5.85365 4.50005 7.21069 4.50005 8.88501V16.9686C4.50005 18.643 5.84669 20 7.50818 20Z" fill="white"/>
<path d="M17.5891 5.85366C17.5891 3.69854 15.7689 1.95122 13.524 1.95122C11.2791 1.95122 9.45898 3.69854 9.45898 5.85366H7.42646C7.42646 2.62049 10.1561 0 13.524 0C16.8919 0 19.6216 2.62049 19.6216 5.85366H17.5891Z" fill="white"/>
<path d="M13.5246 14.6342C12.5817 14.6342 11.8173 13.979 11.8173 13.1708C11.8173 12.3625 12.5817 11.7073 13.5246 11.7073C14.4675 11.7073 15.2319 12.3625 15.2319 13.1708C15.2319 13.979 14.4675 14.6342 13.5246 14.6342Z" fill="white"/>
<path d="M8.40231 14.6342C7.59409 14.6342 6.93889 13.979 6.93889 13.1708C6.93889 12.3625 7.59409 11.7073 8.40231 11.7073C9.21053 11.7073 9.86572 12.3625 9.86572 13.1708C9.86572 13.979 9.21053 14.6342 8.40231 14.6342Z" fill="white"/>
<path d="M18.646 14.6342C17.8377 14.6342 17.1825 13.979 17.1825 13.1708C17.1825 12.3625 17.8377 11.7073 18.646 11.7073C19.4542 11.7073 20.1094 12.3625 20.1094 13.1708C20.1094 13.979 19.4542 14.6342 18.646 14.6342Z" fill="white"/>
</svg>
