<svg width="20" height="21" viewBox="0 0 20 21" fill="none" xmlns="http://www.w3.org/2000/svg">
<path opacity="0.35" d="M8.68812 9.65358C11.3539 9.65358 13.5149 7.49255 13.5149 4.82679C13.5149 2.16103 11.3539 0 8.68812 0C6.02236 0 3.86133 2.16103 3.86133 4.82679C3.86133 7.49255 6.02236 9.65358 8.68812 9.65358Z" fill="#327052"/>
<path opacity="0.35" d="M19.3074 15.4457C19.3074 15.0788 19.4724 14.7516 19.7321 14.5325C19.9628 14.3365 20.0642 14.0256 19.958 13.7418C19.7707 13.2466 19.5053 12.79 19.1761 12.3884C18.9907 12.1625 18.6799 12.0766 18.4076 12.1808C18.0814 12.3063 17.7039 12.2909 17.3766 12.1017C17.0484 11.9125 16.8457 11.592 16.7926 11.2454C16.7492 10.9616 16.5242 10.7347 16.2414 10.6865C15.9827 10.6421 15.7172 10.6189 15.4459 10.6189C15.1747 10.6189 14.9092 10.6421 14.6514 10.6865C14.3686 10.7347 14.1437 10.9616 14.1002 11.2454C14.0462 11.592 13.8434 11.9125 13.5152 12.1017C13.188 12.2909 12.8115 12.3063 12.4842 12.1808C12.212 12.0756 11.9011 12.1625 11.7158 12.3884C11.3856 12.791 11.1202 13.2466 10.9338 13.7418C10.8267 14.0256 10.9281 14.3365 11.1597 14.5325C11.4194 14.7516 11.5845 15.0788 11.5845 15.4457C11.5845 15.8125 11.4194 16.1398 11.1597 16.3589C10.929 16.5549 10.8277 16.8657 10.9338 17.1495C11.1211 17.6448 11.3866 18.1014 11.7158 18.503C11.9011 18.7289 12.212 18.8148 12.4842 18.7105C12.8105 18.585 13.188 18.6005 13.5152 18.7897C13.8434 18.9789 14.0462 19.2994 14.0993 19.646C14.1427 19.9298 14.3676 20.1566 14.6505 20.2049C14.9092 20.2493 15.1747 20.2725 15.4459 20.2725C15.7172 20.2725 15.9827 20.2493 16.2404 20.2049C16.5233 20.1566 16.7482 19.9298 16.7916 19.646C16.8447 19.2984 17.0475 18.9789 17.3757 18.7897C17.7029 18.6005 18.0794 18.585 18.4067 18.7105C18.6789 18.8158 18.9898 18.7289 19.1751 18.503C19.5053 18.1004 19.7707 17.6448 19.957 17.1495C20.0642 16.8667 19.9628 16.5549 19.7312 16.3589C19.4724 16.1398 19.3074 15.8125 19.3074 15.4457ZM15.4459 17.3764C14.3792 17.3764 13.5152 16.5114 13.5152 15.4457C13.5152 14.3799 14.3792 13.515 15.4459 13.515C16.5126 13.515 17.3766 14.3799 17.3766 15.4457C17.3766 16.5114 16.5126 17.3764 15.4459 17.3764Z" fill="#327052"/>
<path d="M11.1595 16.359C11.4192 16.1398 11.5843 15.8126 11.5843 15.4458C11.5843 15.0789 11.4192 14.7517 11.1595 14.5325C10.9288 14.3366 10.8275 14.0257 10.9336 13.7419C11.0968 13.3094 11.3304 12.9127 11.6036 12.5497H2.89607C1.29358 12.5497 0 13.8433 0 15.4458C0 17.0483 1.29358 18.3418 2.89607 18.3418H11.6046C11.3304 17.9789 11.0978 17.5831 10.9346 17.1496C10.8275 16.8668 10.9288 16.555 11.1595 16.359Z" fill="#327052"/>
<path d="M15.4459 17.3764C16.5122 17.3764 17.3766 16.512 17.3766 15.4457C17.3766 14.3794 16.5122 13.515 15.4459 13.515C14.3795 13.515 13.5151 14.3794 13.5151 15.4457C13.5151 16.512 14.3795 17.3764 15.4459 17.3764Z" fill="#327052"/>
<path d="M15.4459 17.3764C16.5122 17.3764 17.3766 16.512 17.3766 15.4457C17.3766 14.3794 16.5122 13.515 15.4459 13.515C14.3795 13.515 13.5151 14.3794 13.5151 15.4457C13.5151 16.512 14.3795 17.3764 15.4459 17.3764Z" fill="#327052"/>
</svg>
