<svg width="20" height="21" viewBox="0 0 20 21" fill="none" xmlns="http://www.w3.org/2000/svg">
<path opacity="0.35" d="M13.7942 17.3799C14.4903 16.9785 15.2922 16.9446 15.9862 17.2115C16.5653 17.4343 17.2275 17.2495 17.6207 16.7701C18.322 15.9148 18.8877 14.9446 19.285 13.8902C19.5119 13.2875 19.2973 12.6253 18.8055 12.2085C18.2522 11.7423 17.901 11.0483 17.901 10.267C17.901 9.48565 18.2522 8.79161 18.8045 8.32343C19.2963 7.90659 19.5119 7.2454 19.284 6.6417C18.8867 5.58831 18.322 4.61706 17.6197 3.76182C17.2265 3.28235 16.5643 3.09754 15.9852 3.32034C15.2922 3.58933 14.4903 3.55545 13.7942 3.15401C13.0961 2.75052 12.6649 2.06982 12.5519 1.33163C12.4595 0.727928 11.9811 0.24538 11.3784 0.142711C10.8281 0.0492814 10.2634 0 9.68745 0C9.11147 0 8.54679 0.0492814 7.99648 0.142711C7.39381 0.24538 6.9164 0.727928 6.82297 1.33163C6.71003 2.06982 6.27882 2.75052 5.58066 3.15401C4.88456 3.55545 4.08271 3.58933 3.38866 3.32136C2.80961 3.09857 2.14739 3.28338 1.75416 3.76284C1.05293 4.61808 0.488246 5.58831 0.0909147 6.64273C-0.137012 7.2454 0.0785941 7.90762 0.570382 8.32343C1.12274 8.79161 1.47388 9.48565 1.47388 10.267C1.47388 11.0483 1.12274 11.7423 0.570382 12.2105C0.0785941 12.6273 -0.137012 13.2885 0.0909147 13.8922C0.488246 14.9456 1.05293 15.9169 1.75519 16.7721C2.14842 17.2516 2.81063 17.4364 3.38969 17.2136C4.08271 16.9446 4.88456 16.9785 5.58066 17.3799C6.27882 17.7834 6.71003 18.4641 6.82297 19.2023C6.91537 19.806 7.39381 20.2886 7.99648 20.3912C8.54679 20.4847 9.11147 20.5339 9.68745 20.5339C10.2634 20.5339 10.8281 20.4847 11.3784 20.3912C11.9811 20.2896 12.4595 19.807 12.5519 19.2023C12.6649 18.4641 13.0961 17.7834 13.7942 17.3799Z" fill="#327052"/>
<path d="M9.68735 6.16022C7.41938 6.16022 5.58057 7.99903 5.58057 10.267C5.58057 12.535 7.41938 14.3738 9.68735 14.3738C11.9553 14.3738 13.7941 12.535 13.7941 10.267C13.7941 7.99903 11.9553 6.16022 9.68735 6.16022Z" fill="#327052"/>
</svg>
